<svg id="svg" version="1.1" xmlns="http://www.w3.org/2000/svg" xmlns:xlink="http://www.w3.org/1999/xlink" width="400" height="400" viewBox="0, 0, 400,400"><g id="svgg"><path id="path0" d="M34.137 24.289 C 18.696 27.946,6.329 39.620,1.637 54.965 C -0.525 62.039,-0.977 335.711,1.160 343.744 C 5.213 358.972,17.870 371.480,33.172 375.377 C 40.229 377.174,359.771 377.174,366.828 375.377 C 382.130 371.480,394.787 358.972,398.840 343.744 C 400.977 335.711,400.525 62.039,398.363 54.965 C 394.194 41.330,385.372 31.855,371.484 26.096 L 366.016 23.828 201.563 23.707 C 106.201 23.636,35.861 23.881,34.137 24.289 M364.453 38.701 C 382.322 44.116,386.142 52.786,386.553 88.867 L 386.858 115.625 200.000 115.625 L 13.142 115.625 13.447 88.867 C 13.856 52.973,17.298 44.913,34.766 38.944 C 40.422 37.011,358.104 36.777,364.453 38.701 M41.653 56.457 C 19.993 64.855,24.252 96.009,47.261 97.485 C 70.014 98.946,78.476 68.114,58.203 57.621 C 54.428 55.667,45.340 55.028,41.653 56.457 M105.598 56.959 C 87.902 63.071,86.977 88.736,104.186 96.139 C 113.977 100.352,125.695 96.773,130.836 88.000 C 141.075 70.530,124.682 50.368,105.598 56.959 M172.771 56.321 C 148.457 61.015,151.767 97.892,176.510 97.981 C 183.272 98.005,187.011 96.614,191.521 92.395 C 206.946 77.967,193.604 52.299,172.771 56.321 M53.409 71.591 C 57.790 75.971,54.775 83.594,48.661 83.594 C 45.071 83.594,41.406 80.042,41.406 76.563 C 41.406 70.571,49.173 67.354,53.409 71.591 M117.333 71.777 C 120.638 74.730,120.757 79.104,117.607 81.814 C 111.898 86.725,103.949 81.580,106.290 74.489 C 107.936 69.502,113.310 68.183,117.333 71.777 M181.795 72.063 C 185.677 75.614,184.376 81.918,179.423 83.552 C 172.741 85.757,167.432 78.450,171.630 72.827 C 174.270 69.290,178.423 68.978,181.795 72.063 M386.703 230.273 C 386.685 348.064,387.051 343.084,377.676 353.107 C 367.594 363.885,379.085 363.230,200.000 363.230 C 20.915 363.230,32.406 363.885,22.324 353.107 C 12.949 343.084,13.315 348.064,13.297 230.273 L 13.281 129.688 200.000 129.688 L 386.719 129.688 386.703 230.273 M207.627 168.807 C 206.880 169.242,205.921 170.248,205.496 171.042 C 204.408 173.076,178.125 298.240,178.125 301.390 C 178.125 307.028,185.053 309.892,189.408 306.055 C 191.531 304.183,217.969 182.560,217.969 174.663 C 217.969 169.205,212.378 166.039,207.627 168.807 M154.099 195.272 C 147.233 199.548,108.796 233.485,108.361 235.655 C 107.696 238.973,109.777 242.117,116.406 247.811 C 155.926 281.755,157.435 282.808,161.786 279.467 C 168.299 274.467,166.695 271.948,145.485 253.884 C 135.293 245.203,126.853 237.841,126.731 237.524 C 126.609 237.207,134.397 230.228,144.037 222.015 C 153.678 213.801,162.304 206.144,163.205 204.998 C 168.012 198.887,160.749 191.131,154.099 195.272 M239.341 194.525 C 235.253 196.175,233.978 201.417,236.795 204.998 C 237.696 206.144,246.322 213.801,255.963 222.015 C 265.603 230.228,273.391 237.207,273.269 237.524 C 273.147 237.841,264.707 245.203,254.515 253.884 C 233.305 271.948,231.701 274.467,238.214 279.467 C 242.565 282.808,244.074 281.755,283.594 247.811 C 296.004 237.152,296.258 237.754,269.817 215.138 C 243.933 192.998,243.631 192.794,239.341 194.525 " stroke="none" fill="#000000" fill-rule="evenodd"></path></g></svg>