<svg id="svg" xmlns="http://www.w3.org/2000/svg" xmlns:xlink="http://www.w3.org/1999/xlink" width="400" height="400" viewBox="0, 0, 400,400"><g id="svgg"><path id="path0" d="M193.602 36.769 C 184.660 37.783,181.388 39.084,98.047 74.776 C -1.178 117.270,4.855 114.156,1.244 124.753 C -4.200 140.731,2.627 152.127,22.793 160.724 L 33.984 165.495 34.186 210.818 L 34.388 256.141 32.732 256.666 C 23.546 259.582,18.615 273.831,23.520 283.285 L 25.555 287.208 23.824 289.378 C 20.969 292.959,20.406 296.158,17.899 323.047 C 14.077 364.038,13.876 363.672,40.234 363.672 C 67.002 363.672,66.625 364.409,62.522 320.042 C 60.277 295.772,60.163 295.059,57.861 290.982 L 55.502 286.802 57.431 282.659 C 61.595 273.715,58.955 263.918,50.956 258.631 L 46.875 255.933 46.875 213.503 L 46.875 171.073 49.414 172.146 C 50.811 172.736,58.018 175.807,65.430 178.970 L 78.906 184.722 78.906 211.073 L 78.906 237.425 81.162 244.137 C 105.934 317.854,294.066 317.854,318.838 244.137 L 321.094 237.425 321.094 211.085 L 321.094 184.745 354.762 170.335 C 392.305 154.267,393.769 153.403,397.766 144.953 C 403.530 132.769,398.462 117.250,386.803 111.384 C 375.022 105.456,219.347 39.534,214.197 38.293 C 206.678 36.480,200.306 36.009,193.602 36.769 M210.490 50.409 C 215.312 51.665,379.754 121.852,382.686 123.906 C 388.930 128.279,388.583 140.258,382.097 144.309 C 381.371 144.762,342.900 161.361,296.605 181.195 C 202.933 221.326,206.555 220.024,193.795 218.164 C 187.747 217.282,60.166 163.792,61.332 162.626 C 61.548 162.411,86.386 157.942,116.527 152.697 L 171.330 143.159 174.701 145.732 C 192.062 158.985,228.477 152.915,231.604 136.248 C 235.718 114.318,183.821 106.116,170.530 126.595 C 169.566 128.081,168.486 129.648,168.130 130.078 C 167.774 130.508,138.405 135.908,102.866 142.078 L 38.249 153.296 31.429 150.386 C 18.187 144.736,16.900 143.978,14.648 140.503 C 11.204 135.187,12.471 127.298,17.314 123.906 C 20.011 122.017,184.539 51.695,189.189 50.444 C 194.732 48.952,204.835 48.936,210.490 50.409 M208.544 128.605 C 219.234 131.234,221.171 134.134,214.330 137.266 C 201.658 143.068,173.704 137.936,183.394 131.588 C 189.153 127.814,200.066 126.520,208.544 128.605 M136.305 209.329 C 189.096 231.998,185.729 230.859,200.000 230.859 C 214.271 230.859,210.904 231.998,263.695 209.329 C 286.885 199.371,306.517 191.037,307.320 190.808 C 309.555 190.174,308.828 209.353,306.379 215.657 C 302.839 224.770,292.820 235.369,282.001 241.447 C 274.622 245.592,270.731 248.706,270.444 250.695 C 269.817 255.037,273.858 259.240,277.629 258.168 C 283.581 256.475,295.541 248.801,302.781 242.027 L 307.888 237.250 306.229 241.460 C 282.581 301.454,117.401 301.410,93.749 241.404 L 92.067 237.137 97.049 241.920 C 120.547 264.485,172.465 278.019,218.261 273.519 C 230.549 272.311,232.761 270.931,231.676 265.146 C 230.746 260.189,229.376 259.884,213.099 261.007 C 154.642 265.040,98.726 241.942,92.272 211.094 C 90.776 203.942,91.112 190.359,92.773 190.833 C 93.525 191.048,113.115 199.371,136.305 209.329 M248.516 255.326 C 237.772 258.393,234.408 264.993,241.793 268.515 C 246.336 270.681,261.797 266.014,263.316 262.018 C 266.166 254.523,260.423 251.927,248.516 255.326 M43.947 269.519 C 48.724 273.276,46.343 280.378,40.285 280.444 C 34.095 280.511,32.042 271.054,37.746 268.755 C 40.424 267.677,41.825 267.849,43.947 269.519 M45.306 295.967 C 46.807 297.468,47.671 299.297,47.983 301.631 C 48.499 305.486,52.344 347.804,52.344 349.620 C 52.344 350.598,50.421 350.781,40.187 350.781 L 28.029 350.781 28.472 347.461 C 28.715 345.635,29.812 334.148,30.909 321.934 C 32.006 309.720,33.276 298.998,33.731 298.106 C 36.154 293.356,41.675 292.336,45.306 295.967 " stroke="none" fill="#000000" fill-rule="evenodd"></path></g></svg>