<svg id="svg" xmlns="http://www.w3.org/2000/svg" xmlns:xlink="http://www.w3.org/1999/xlink" width="400" height="400" viewBox="0, 0, 400,400"><g id="svgg"><path id="path0" d="M195.105 10.969 C 193.487 11.371,190.814 12.388,189.164 13.229 C 185.820 14.935,3.700 203.886,1.367 208.071 C -2.779 215.506,-0.318 221.276,12.332 233.773 C 27.503 248.759,31.474 249.096,44.336 236.485 L 51.563 229.400 51.563 244.387 C 51.562 258.333,51.671 259.484,53.125 260.938 C 55.128 262.941,59.396 262.975,61.828 261.008 L 63.672 259.515 63.901 237.671 L 64.131 215.827 130.648 146.564 C 170.824 104.729,197.908 77.114,199.041 76.830 C 201.846 76.126,199.828 74.124,270.366 147.598 L 335.938 215.899 335.938 292.428 C 335.938 366.682,335.893 369.029,334.429 371.392 C 331.838 375.575,328.673 376.861,320.102 377.213 C 312.009 377.546,309.375 378.937,309.375 382.881 C 309.375 395.530,338.070 391.057,345.739 377.213 L 348.047 373.047 348.258 301.239 L 348.469 229.431 355.680 236.501 C 368.524 249.094,372.502 248.755,387.668 233.773 C 400.318 221.275,402.777 215.511,398.633 208.067 C 395.471 202.387,213.587 14.386,209.591 12.667 C 204.972 10.681,199.060 9.987,195.105 10.969 M203.623 23.791 C 205.610 24.359,387.007 212.940,387.335 214.778 C 387.470 215.535,384.059 219.496,378.863 224.617 L 370.165 233.188 364.184 226.943 C 204.147 59.843,208.805 64.453,200.000 64.453 C 191.195 64.453,195.853 59.843,35.816 226.943 L 29.835 233.188 21.137 224.617 C 15.947 219.502,12.530 215.535,12.665 214.780 C 13.098 212.355,194.557 24.263,197.192 23.507 C 199.580 22.822,200.352 22.856,203.623 23.791 M191.590 257.880 C 174.760 260.451,159.319 271.778,152.021 286.907 C 146.337 298.690,146.094 300.944,146.094 341.793 L 146.094 377.402 109.180 377.177 C 72.795 376.956,72.226 376.929,69.531 375.249 C 63.816 371.688,64.062 373.932,64.063 325.405 L 64.063 281.911 61.687 279.536 C 59.707 277.556,58.904 277.243,56.856 277.652 C 51.138 278.796,51.490 275.412,51.734 326.900 L 51.953 373.047 54.261 377.213 C 57.003 382.164,59.820 384.696,65.625 387.430 L 69.922 389.453 179.292 389.664 C 256.772 389.814,289.260 389.628,290.714 389.026 C 294.498 387.458,295.567 382.777,292.912 379.402 L 291.293 377.344 272.600 377.344 L 253.906 377.344 253.906 341.764 C 253.906 301.498,253.608 298.569,248.426 287.891 C 237.944 266.290,215.190 254.276,191.590 257.880 M208.037 270.682 C 222.368 273.719,233.486 283.393,239.023 297.644 L 241.001 302.734 241.245 340.039 L 241.490 377.344 200.000 377.344 L 158.510 377.344 158.755 340.039 L 158.999 302.734 160.977 297.644 C 168.737 277.671,188.252 266.490,208.037 270.682 " stroke="none" fill="#000000" fill-rule="evenodd"></path></g></svg>