<svg id="svg" version="1.1" xmlns="http://www.w3.org/2000/svg" xmlns:xlink="http://www.w3.org/1999/xlink" width="400" height="400" viewBox="0, 0, 400,400"><g id="svgg"><path id="path0" d="M267.578 1.171 C 249.586 4.338,233.565 11.165,218.359 22.145 C 212.486 26.386,152.015 85.982,144.722 94.717 C 138.476 102.198,133.258 110.197,129.148 118.590 L 125.592 125.851 120.559 128.133 C 105.071 135.156,97.694 141.225,64.167 174.526 C 24.633 213.793,20.811 218.200,12.116 234.545 C -1.124 259.434,-3.778 294.990,5.523 322.903 C 30.066 396.567,120.641 423.996,183.203 376.710 C 188.998 372.330,248.302 313.514,255.036 305.469 C 261.663 297.552,266.506 290.172,270.714 281.577 L 274.228 274.402 281.509 270.789 C 298.197 262.507,303.610 257.894,342.272 219.011 C 372.968 188.140,378.404 181.958,385.423 169.938 C 390.773 160.775,389.849 154.687,383.107 154.688 C 379.813 154.688,378.751 155.747,374.397 163.379 C 367.918 174.738,364.143 178.973,330.542 212.573 C 299.148 243.968,293.419 249.209,284.531 254.669 C 279.559 257.724,279.263 257.544,280.486 252.202 C 281.873 246.138,282.397 223.426,281.311 216.442 L 280.405 210.619 308.048 182.848 C 344.597 146.131,347.151 142.463,350.069 122.505 C 358.382 65.654,292.388 27.559,246.875 62.938 C 239.563 68.622,181.749 127.296,178.159 132.676 C 154.108 168.722,171.938 217.906,213.442 230.006 L 219.922 231.895 219.735 235.674 C 219.245 245.556,210.039 266.406,206.166 266.406 C 201.634 266.406,185.105 258.950,175.391 252.524 C 127.546 220.875,115.963 154.851,150.117 108.453 C 155.282 101.436,210.008 45.849,220.703 36.757 C 286.885 -19.509,387.834 27.256,387.453 114.005 C 387.428 119.837,387.073 126.367,386.666 128.516 C 384.264 141.173,385.351 145.313,391.077 145.313 C 401.295 145.312,403.365 103.773,394.477 77.097 C 377.049 24.786,321.665 -8.350,267.578 1.171 M296.713 62.942 C 324.384 68.565,342.840 96.380,337.113 123.828 C 334.231 137.638,331.571 141.230,302.724 170.248 L 276.770 196.356 275.779 193.295 C 266.181 163.657,236.348 133.820,206.719 124.226 L 203.672 123.239 228.985 98.035 C 264.418 62.752,273.252 58.175,296.713 62.942 M199.607 135.212 C 264.446 155.239,290.543 236.178,249.978 291.438 C 243.155 300.733,180.723 362.937,172.135 368.997 C 103.345 417.537,10.005 366.920,12.705 282.539 C 13.830 247.391,21.331 235.014,71.995 184.707 C 101.070 155.837,106.769 150.676,115.469 145.331 C 120.441 142.276,120.735 142.455,119.520 147.798 C 118.137 153.880,117.615 175.070,118.657 182.817 L 119.543 189.395 91.150 217.940 C 56.455 252.821,52.308 258.558,57.812 264.063 C 61.482 267.732,65.527 266.035,69.914 258.984 C 71.810 255.936,81.644 245.445,98.035 228.985 L 123.239 203.672 124.226 206.719 C 133.819 236.345,163.658 266.181,193.288 275.777 L 196.342 276.766 170.632 302.327 C 151.201 321.646,143.700 328.596,139.919 330.787 C 104.532 351.289,61.719 326.111,61.719 284.799 C 61.719 277.707,60.410 275.781,55.590 275.781 C 50.413 275.781,49.600 277.480,49.662 288.173 C 49.963 340.328,111.559 369.476,153.070 337.107 C 161.124 330.827,217.575 273.465,221.814 267.254 C 246.013 231.795,227.989 182.073,186.558 169.994 L 180.078 168.105 180.265 164.326 C 180.690 155.759,184.672 145.153,190.292 137.625 C 193.788 132.943,192.958 133.159,199.607 135.212 M196.597 188.356 C 205.517 194.165,212.989 203.479,216.755 213.486 L 218.728 218.728 213.486 216.755 C 199.740 211.581,188.414 200.260,183.251 186.534 L 181.272 181.272 186.534 183.251 C 189.429 184.340,193.957 186.637,196.597 188.356 " stroke="none" fill="#000000" fill-rule="evenodd"></path></g></svg>