<svg id="svg" xmlns="http://www.w3.org/2000/svg" xmlns:xlink="http://www.w3.org/1999/xlink" width="400" height="400" viewBox="0, 0, 400,400"><g id="svgg"><path id="path0" d="M195.343 1.710 C 192.704 4.542,192.893 41.891,195.558 44.395 C 198.195 46.873,202.534 46.701,204.631 44.035 C 207.117 40.875,207.139 4.374,204.657 1.710 C 202.466 -0.641,197.534 -0.641,195.343 1.710 M140.464 32.429 C 136.953 34.387,136.917 37.596,140.313 46.079 C 143.924 55.101,145.248 56.589,149.111 55.971 C 155.269 54.986,155.954 51.308,151.921 40.887 C 148.356 31.677,145.539 29.598,140.464 32.429 M253.125 32.254 C 250.848 33.398,245.462 45.611,245.369 49.840 C 245.223 56.487,254.245 58.509,257.024 52.453 C 263.051 39.322,263.605 34.609,259.379 32.424 C 256.635 31.005,255.665 30.979,253.125 32.254 M72.781 52.032 C 67.139 55.983,68.844 59.287,84.536 74.805 C 98.050 88.170,99.511 89.071,103.875 86.735 C 109.765 83.583,107.850 79.955,92.012 64.258 C 77.694 50.067,76.589 49.365,72.781 52.032 M307.988 64.258 C 292.150 79.955,290.235 83.583,296.125 86.735 C 300.489 89.071,301.950 88.170,315.464 74.805 C 331.156 59.287,332.861 55.983,327.219 52.032 C 323.411 49.365,322.306 50.067,307.988 64.258 M227.578 65.466 C 220.163 68.121,213.452 74.450,212.026 80.133 L 211.612 81.782 208.345 80.151 C 197.248 74.608,181.274 80.030,175.435 91.321 L 174.174 93.759 170.876 92.068 C 158.359 85.652,140.076 93.471,136.522 106.760 C 135.821 109.378,135.318 110.073,134.403 109.680 C 120.594 103.750,106.795 108.188,100.128 120.703 L 98.047 124.609 97.819 162.500 C 97.568 204.398,97.496 203.379,100.840 205.109 C 107.131 208.362,110.156 204.280,110.156 192.541 C 110.156 188.050,110.269 184.375,110.408 184.375 C 110.546 184.375,112.315 184.939,114.338 185.629 C 119.952 187.541,129.035 186.903,134.178 184.235 C 137.990 182.257,138.237 182.223,138.676 183.607 C 141.509 192.532,159.720 198.229,170.048 193.420 L 174.080 191.543 176.688 195.967 C 184.682 209.524,205.465 211.575,216.056 199.852 C 219.127 196.454,219.276 196.413,221.736 198.305 L 223.550 199.701 218.214 203.670 C 198.430 218.381,180.406 246.827,186.964 252.989 C 190.999 256.779,195.387 254.846,198.501 247.906 C 207.505 227.837,225.445 210.889,246.767 202.308 C 256.115 198.547,255.632 199.180,258.921 186.374 C 262.719 171.589,262.366 168.883,256.480 167.651 C 208.997 157.709,207.891 157.375,202.790 151.416 C 198.462 146.360,196.134 136.991,198.594 134.531 C 199.295 133.830,208.299 133.596,234.336 133.601 L 269.141 133.609 273.047 135.459 C 290.849 143.889,294.467 176.853,284.289 237.891 C 282.547 248.334,281.256 253.261,278.458 260.147 C 275.961 266.293,276.001 268.976,278.621 271.037 C 286.592 277.307,292.298 266.871,297.173 237.109 C 309.577 161.389,299.518 123.217,266.650 121.280 L 260.252 120.903 260.009 101.272 C 259.737 79.338,259.596 78.708,253.412 71.863 C 247.430 65.242,236.064 62.428,227.578 65.466 M240.609 78.320 C 247.143 81.659,247.233 81.981,247.501 102.790 L 247.737 121.094 235.196 121.094 L 222.656 121.094 222.656 104.029 C 222.656 84.074,223.297 81.724,229.656 78.362 C 233.920 76.107,236.259 76.098,240.609 78.320 M203.914 92.383 C 209.279 96.034,209.739 97.347,210.019 109.820 L 210.272 121.094 203.769 121.111 C 194.194 121.136,188.933 124.146,186.002 131.273 C 185.438 132.647,185.257 128.206,185.378 115.875 C 185.536 99.661,185.652 98.406,187.181 96.344 C 189.954 92.606,193.582 90.625,197.656 90.625 C 200.181 90.625,202.140 91.175,203.914 92.383 M167.002 104.431 C 172.512 108.545,172.266 106.761,172.266 142.578 C 172.266 174.135,172.228 174.937,170.631 177.091 C 164.948 184.762,155.365 184.762,149.681 177.091 C 148.085 174.937,148.047 174.134,148.047 142.655 L 148.047 110.425 150.296 107.476 C 154.267 102.271,162.177 100.829,167.002 104.431 M52.699 120.668 C 48.124 125.242,50.657 129.351,60.374 133.116 C 68.983 136.452,70.540 136.563,73.082 134.020 C 77.787 129.316,75.468 125.545,65.365 121.471 C 57.361 118.244,55.256 118.110,52.699 120.668 M334.375 121.518 C 324.909 125.368,322.427 129.529,326.918 134.020 C 331.501 138.603,349.219 131.271,349.219 124.791 C 349.219 118.666,344.141 117.547,334.375 121.518 M129.525 121.625 C 134.823 125.554,135.195 127.343,134.970 147.796 C 134.778 165.170,134.666 166.430,133.131 168.499 C 127.282 176.386,117.399 176.142,111.895 167.974 C 109.245 164.041,109.480 128.893,112.181 125.251 C 116.500 119.427,124.348 117.787,129.525 121.625 M188.740 153.259 C 192.555 160.788,203.970 170.313,209.178 170.313 C 211.475 170.313,210.191 186.680,207.631 190.033 C 201.972 197.444,190.818 196.359,186.774 188.005 C 185.256 184.869,185.161 183.391,185.235 164.011 C 185.287 150.185,185.542 144.329,186.004 146.292 C 186.385 147.905,187.615 151.040,188.740 153.259 M236.328 176.231 C 248.195 178.720,248.104 178.667,246.621 182.216 C 242.679 191.650,229.312 192.028,224.455 182.844 C 221.978 178.160,221.955 173.102,224.414 173.685 C 225.381 173.914,230.742 175.060,236.328 176.231 M20.449 176.808 C 18.337 179.056,18.246 182.798,20.242 185.265 C 21.968 187.398,57.130 188.619,61.749 186.706 C 65.755 185.047,66.769 179.979,63.707 176.918 L 61.790 175.000 41.969 175.000 C 22.260 175.000,22.138 175.010,20.449 176.808 M336.293 176.918 C 334.191 179.020,333.907 180.931,335.258 183.895 C 336.801 187.282,339.001 187.598,359.314 187.345 C 380.565 187.081,381.250 186.880,381.250 180.909 C 381.250 175.280,380.143 175.000,357.922 175.000 L 338.210 175.000 336.293 176.918 M99.355 215.871 C 91.282 224.464,105.929 274.880,122.958 297.118 C 130.291 306.693,130.810 308.405,131.116 324.023 C 131.338 335.387,131.202 337.500,130.248 337.500 C 129.626 337.500,128.191 338.229,127.058 339.119 L 125.000 340.738 125.000 369.076 C 125.000 395.537,125.095 397.500,126.429 398.707 C 128.864 400.911,167.934 400.634,169.957 398.399 C 171.828 396.331,171.828 391.950,169.957 389.883 C 168.589 388.371,167.641 388.281,153.004 388.281 L 137.500 388.281 137.500 369.141 L 137.500 350.000 196.094 350.000 L 254.688 350.000 254.688 369.141 L 254.688 388.281 220.313 388.281 C 181.582 388.281,182.813 388.089,182.813 394.141 C 182.813 400.253,180.993 400.000,224.970 400.000 L 264.002 400.000 265.595 398.290 C 267.135 396.637,267.188 395.675,267.188 369.167 C 267.188 338.982,267.178 338.918,262.417 337.872 L 259.993 337.340 260.303 325.506 C 260.640 312.621,261.331 310.208,266.312 304.514 C 277.619 291.588,280.146 283.653,273.649 281.467 C 269.507 280.074,267.994 281.232,259.616 292.215 C 248.861 306.312,248.280 307.900,247.831 324.414 L 247.476 337.500 195.613 337.500 L 143.750 337.500 143.750 324.774 C 143.750 306.625,141.936 300.895,132.072 287.891 C 119.676 271.548,110.156 242.899,110.156 221.935 C 110.156 214.932,103.662 211.286,99.355 215.871 " stroke="none" fill="#000000" fill-rule="evenodd"></path></g></svg>