<svg id="svg" xmlns="http://www.w3.org/2000/svg" xmlns:xlink="http://www.w3.org/1999/xlink" width="400" height="400" viewBox="0, 0, 400,400"><g id="svgg"><path id="path0" d="M201.286 1.758 C 197.914 4.835,173.551 52.526,164.468 73.828 C 157.138 91.020,148.296 115.877,144.100 131.090 C 141.340 141.095,147.872 148.582,155.715 144.403 C 161.732 141.198,176.839 127.393,184.911 117.723 L 190.659 110.838 190.234 119.286 C 190.000 123.933,189.461 135.469,189.036 144.922 C 188.612 154.375,187.569 176.523,186.720 194.141 C 182.285 286.090,184.714 338.598,195.700 388.269 C 197.996 398.648,198.910 400.000,203.637 400.000 C 209.915 400.000,210.811 397.868,209.392 386.308 C 203.801 340.763,202.997 280.950,206.650 182.422 C 207.287 165.234,208.041 141.064,208.326 128.711 C 208.612 116.357,209.001 106.250,209.191 106.250 C 209.585 106.250,218.859 114.507,232.111 126.658 C 246.269 139.639,253.124 141.426,256.338 132.971 C 260.158 122.926,244.291 65.146,228.298 30.859 C 214.399 1.062,208.735 -5.040,201.286 1.758 M220.247 57.813 C 225.752 71.612,230.730 87.552,233.514 100.292 L 235.030 107.225 232.163 104.557 C 216.283 89.776,210.258 84.509,208.647 83.999 C 207.603 83.669,205.669 82.741,204.351 81.937 C 198.380 78.296,190.625 82.017,190.625 88.523 C 190.625 89.712,187.068 93.801,179.271 101.573 C 166.677 114.127,167.316 114.262,172.572 100.159 C 178.751 83.579,193.166 51.897,202.148 35.156 L 206.549 26.953 210.672 35.547 C 212.939 40.273,217.248 50.293,220.247 57.813 " stroke="none" fill="#000000" fill-rule="evenodd"></path></g></svg>